<svg width="178" height="218" viewBox="0 0 178 218" fill="none" xmlns="http://www.w3.org/2000/svg">
<path d="M106.167 93.4009C105.339 93.4009 104.663 94.0821 104.663 94.9022V123.584C104.663 124.411 105.346 125.086 106.167 125.086H128.437C129.265 125.086 129.941 124.405 129.941 123.584V94.9022C129.941 94.0758 129.258 93.4009 128.437 93.4009H106.167ZM126.925 122.083H107.672V96.4222H126.925V122.083ZM65.415 93.4009H43.1456C42.3175 93.4009 41.6412 94.0821 41.6412 94.9022V123.584C41.6412 124.411 42.3239 125.086 43.1456 125.086H65.415C66.2431 125.086 66.9194 124.405 66.9194 123.584V94.9022C66.9194 94.0758 66.2367 93.4009 65.415 93.4009ZM63.9106 122.083H44.6575V96.4222H63.9106V122.083ZM92.3744 135.052C93.2025 135.052 93.8788 135.733 93.8788 136.553V138.736C93.8788 139.562 93.1962 140.237 92.3744 140.237C91.5464 140.237 90.87 139.556 90.87 138.736V136.553C90.87 135.727 91.5527 135.052 92.3744 135.052ZM141.388 169.191C141.388 170.017 140.705 170.692 139.883 170.692C134.946 170.692 132.361 169.096 130.06 167.671C127.829 166.296 125.92 165.103 121.843 165.103C117.766 165.103 115.838 166.296 113.626 167.671C111.344 169.09 108.752 170.692 103.822 170.692C98.885 170.692 96.2998 169.096 93.9989 167.671C91.7802 166.296 89.8587 165.103 85.7816 165.103C81.7046 165.103 79.7767 166.296 77.5644 167.671C75.2824 169.09 72.6909 170.692 67.7604 170.692C62.8237 170.692 60.2385 169.096 57.9565 167.671C55.7378 166.296 53.8162 165.103 49.7392 165.103C45.6622 165.103 43.7343 166.296 41.5219 167.671C39.24 169.09 36.6485 170.692 31.718 170.692C30.89 170.692 30.2136 170.011 30.2136 169.191C30.2136 168.365 30.8963 167.69 31.718 167.69C35.795 167.69 37.7229 166.497 39.9353 165.122C42.2173 163.703 44.8088 162.101 49.7392 162.101C54.676 162.101 57.2612 163.697 59.5432 165.122C61.7618 166.498 63.6834 167.69 67.7604 167.69C71.8374 167.69 73.7653 166.497 75.9777 165.122C78.2597 163.703 80.8512 162.101 85.7816 162.101C90.7184 162.101 93.3036 163.697 95.5856 165.122C97.8043 166.498 99.7258 167.69 103.803 167.69C107.88 167.69 109.808 166.497 112.02 165.122C114.302 163.703 116.894 162.101 121.824 162.101C126.761 162.101 129.346 163.697 131.647 165.122C133.878 166.498 135.787 167.69 139.864 167.69C140.692 167.69 141.369 168.371 141.369 169.191H141.388ZM140.515 27.4909C138.619 24.7281 135.496 23.0817 132.146 23.0817C128.796 23.0817 125.673 24.728 123.777 27.4909L110.041 47.626L91.5974 35.7231C88.0514 33.4459 83.4876 33.4459 79.9478 35.7231L18.5135 75.3813C16.1052 76.9331 14.4492 79.3237 13.855 82.1308C13.2545 84.9252 13.7728 87.7826 15.3467 90.1859C18.5515 95.125 25.2202 96.5506 30.1885 93.3652C31.124 92.7533 32.0469 92.173 32.9571 91.5737V146.25C32.5525 146.281 32.148 146.3 31.7118 146.3C27.6348 146.3 25.7069 145.108 23.4946 143.733C21.2126 142.314 18.6211 140.711 13.6717 140.711C12.8436 140.711 12.1673 141.393 12.1673 142.213C12.1673 143.039 12.85 143.714 13.6717 143.714C17.7676 143.714 19.6766 144.906 21.9079 146.281C24.1899 147.688 26.7814 149.303 31.7118 149.303C32.7485 149.303 33.7535 149.221 34.689 149.095C37.7609 148.609 39.7521 147.385 41.5158 146.3C43.7345 144.925 45.656 143.733 49.7331 143.733C53.8101 143.733 55.738 144.925 57.9503 146.3C60.2323 147.719 62.8238 149.322 67.7543 149.322C70.131 149.322 72.1853 148.949 74.05 148.205C75.39 147.656 76.4962 146.975 77.5455 146.313C79.7769 144.938 81.6858 143.745 85.7818 143.745C86.3633 143.745 86.9006 143.777 87.4 143.827C89.9725 144.067 91.5907 144.862 93.19 145.815C93.4681 145.979 93.7209 146.136 93.9991 146.313C94.1761 146.426 94.353 146.521 94.5174 146.635C95.4213 147.202 96.3948 147.751 97.5452 148.218C99.4226 148.975 101.426 149.334 103.822 149.334C108.759 149.334 111.344 147.738 113.626 146.313C115.566 145.102 117.286 144.055 120.408 143.796C120.863 143.764 121.331 143.746 121.849 143.746C125.926 143.746 127.854 144.938 130.067 146.313C131.83 147.398 133.821 148.64 136.925 149.107C137.88 149.252 138.853 149.315 139.883 149.315C144.833 149.315 147.424 147.719 149.706 146.294C151.925 144.919 153.846 143.727 157.923 143.727C158.752 143.727 159.428 143.045 159.428 142.225C159.428 141.399 158.745 140.724 157.923 140.724C152.987 140.724 150.401 142.32 148.12 143.746C145.888 145.121 143.979 146.313 139.883 146.313C139.46 146.313 139.055 146.313 138.651 146.262V91.5863L141.419 93.3778C143.183 94.5069 145.174 95.0872 147.209 95.0872C148.018 95.0872 148.846 94.9926 149.655 94.8097C152.506 94.1474 154.896 92.419 156.419 89.9338C158.733 86.1238 158.246 81.2919 155.559 77.8038H155.686C159.504 77.8038 162.841 75.8041 164.636 72.4295C166.419 69.0738 166.204 65.1817 164.055 62.0278L140.496 27.5176L140.515 27.4909ZM28.5257 90.8353C24.9481 93.1314 20.1566 92.1094 17.8622 88.558C16.7434 86.8297 16.3578 84.7797 16.794 82.7612C17.2301 80.7427 18.4122 79.0332 20.1441 77.9167L81.6026 38.2585C84.1437 36.6122 87.4307 36.6122 89.9843 38.2585L108.365 50.1109L100.243 61.995C100.047 62.2725 99.8888 62.5753 99.7245 62.8655L86.602 54.4066C86.3618 54.2426 86.071 54.1669 85.7739 54.1669C85.4832 54.1669 85.2051 54.2489 84.9459 54.4066H84.9269L84.8131 54.4886L84.6678 54.5832L28.5257 90.8353ZM96.6156 144.352C96.2742 144.156 95.9329 143.948 95.5979 143.74C95.0985 143.431 94.5613 143.109 94.0113 142.806C92.0519 141.709 89.6246 140.738 85.794 140.738C80.8447 140.738 78.253 142.333 75.9712 143.759C75.6488 143.967 75.3264 144.144 74.9977 144.339V133.294C74.9977 130.405 76.1292 127.693 78.1708 125.655C80.2125 123.618 82.9306 122.489 85.8256 122.489C91.799 122.489 96.6536 127.333 96.6536 133.275V144.339L96.6156 144.352ZM135.661 145.727C135.661 145.727 135.629 145.727 135.61 145.708C135.288 145.613 134.978 145.481 134.675 145.367C134.592 145.336 134.51 145.304 134.434 145.273C134.125 145.147 133.834 144.995 133.562 144.85C133.562 144.85 133.543 144.85 133.531 144.831C133.24 144.686 132.962 144.522 132.69 144.364C132.608 144.314 132.544 144.282 132.462 144.238C132.203 144.074 131.944 143.917 131.685 143.753C129.403 142.346 126.811 140.731 121.881 140.731C116.944 140.731 114.359 142.327 112.077 143.753C110.136 144.964 108.417 146.011 105.294 146.269C104.839 146.301 104.372 146.32 103.853 146.32C102.267 146.32 100.908 146.124 99.6435 145.74V133.307C99.6435 125.7 93.4489 119.499 85.8067 119.499C82.1153 119.499 78.6386 120.937 76.0343 123.536C73.43 126.135 71.9889 129.61 71.9889 133.288V145.721C70.7436 146.105 69.3846 146.301 67.779 146.301C63.702 146.301 61.7741 145.109 59.5617 143.734C57.2798 142.314 54.6882 140.712 49.7578 140.712C44.8211 140.712 42.2359 142.308 39.9539 143.734C39.5999 143.961 39.2396 144.169 38.8856 144.377C38.7719 144.44 38.6581 144.503 38.5443 144.573C38.2535 144.737 37.9628 144.882 37.672 145.027C37.5456 145.09 37.4318 145.153 37.2991 145.204C36.8945 145.38 36.4584 145.557 36.0032 145.702V89.6193C73.2538 65.5925 83.3027 59.1025 85.8578 57.449L98.7211 65.7501C98.2849 67.9642 98.6073 70.2854 99.7261 72.4049C101.509 75.7795 104.859 77.7792 108.677 77.7792H117.368L135.738 89.6316V145.714L135.661 145.727ZM153.865 88.351C152.778 90.1424 151.052 91.385 149.011 91.8708C146.956 92.3375 144.851 91.9654 143.088 90.8363L122.861 77.7917H151.242C154.801 80.1824 155.983 84.8815 153.865 88.351ZM162.007 71.0111C160.761 73.3702 158.416 74.7894 155.73 74.7894H108.626C105.94 74.7894 103.595 73.3828 102.349 71.0111C101.104 68.6394 101.25 65.927 102.754 63.7129L126.313 29.2027C127.653 27.2346 129.79 26.0992 132.185 26.0992C134.581 26.0992 136.718 27.2283 138.058 29.2027L161.617 63.7129C163.121 65.927 163.285 68.652 162.021 71.0111H162.007ZM132.166 31.4982C128.721 31.4982 125.902 34.2926 125.902 37.7304C125.902 39.4713 126.629 48.3717 127.728 53.7839C128.152 55.8845 130.01 57.3983 132.159 57.3983C134.309 57.3983 136.173 55.8781 136.591 53.7839C137.678 48.3717 138.417 39.4776 138.417 37.7304C138.417 34.2926 135.617 31.4982 132.172 31.4982H132.166ZM133.639 53.2029C133.493 53.8968 132.88 54.3951 132.166 54.3951C131.451 54.3951 130.826 53.8968 130.693 53.2029C129.606 47.8286 128.929 39.0733 128.929 37.7486C128.929 35.9698 130.383 34.519 132.166 34.519C133.948 34.519 135.402 35.9698 135.402 37.7486C135.402 39.0859 134.719 47.8223 133.639 53.2029ZM132.166 58.9368C129.283 58.9368 126.926 61.277 126.926 64.166C126.926 67.0551 129.271 69.3953 132.166 69.3953C135.061 69.3953 137.406 67.0551 137.406 64.166C137.406 61.277 135.061 58.9368 132.166 58.9368ZM132.166 66.3801C130.933 66.3801 129.947 65.3772 129.947 64.166C129.947 62.9549 130.952 61.952 132.166 61.952C133.379 61.952 134.384 62.9549 134.384 64.166C134.384 65.3772 133.379 66.3801 132.166 66.3801Z" fill="black"/>
</svg>
