<svg width="310" height="299" viewBox="0 0 310 299" fill="none" xmlns="http://www.w3.org/2000/svg">
<g clip-path="url(#clip0_26_58)">
<path d="M37.0557 141.382C36.5677 141.982 36.2942 142.728 36.2785 143.501C36.2628 144.274 36.5059 145.03 36.9692 145.65L46.1963 157.981C46.6596 158.6 47.3165 159.047 48.0626 159.25C48.8088 159.453 49.6014 159.401 50.3145 159.102L59.0293 155.44C59.4582 155.26 59.9188 155.168 60.3839 155.17C60.8489 155.172 61.3088 155.267 61.7363 155.451L66.4939 157.484C66.9221 157.667 67.309 157.935 67.6314 158.272C67.9538 158.608 68.2051 159.006 68.3704 159.441L71.7323 168.277C72.0074 169 72.5168 169.611 73.1795 170.012C73.8421 170.413 74.6198 170.581 75.3886 170.488L90.6761 168.662C91.4443 168.571 92.1598 168.225 92.7088 167.68C93.2579 167.135 93.609 166.422 93.7062 165.654L94.896 156.273C94.9545 155.811 95.1053 155.366 95.3395 154.963C95.5736 154.561 95.8864 154.21 96.259 153.931L100.397 150.835C100.77 150.555 101.195 150.354 101.648 150.242C102.1 150.131 102.571 150.111 103.031 150.186L112.364 151.693C113.129 151.816 113.912 151.68 114.59 151.306C115.268 150.932 115.802 150.342 116.106 149.63L122.169 135.483C122.474 134.772 122.532 133.98 122.334 133.232C122.136 132.484 121.695 131.824 121.079 131.356L113.583 125.658C113.202 125.369 112.886 125.005 112.653 124.588C112.42 124.171 112.276 123.71 112.229 123.235L111.85 119.347C111.77 118.527 111.985 117.706 112.456 117.031L118.604 108.167C119.018 107.569 119.234 106.855 119.221 106.127C119.207 105.4 118.965 104.695 118.529 104.112L109.056 91.4531C108.62 90.8698 108.011 90.4387 107.316 90.2208C106.622 90.0028 105.876 90.0092 105.184 90.2389L94.959 93.636C94.1719 93.8977 93.3172 93.8687 92.5497 93.5542L88.8786 92.0468C88.4388 91.8665 88.0407 91.5977 87.709 91.2571C87.3774 90.9165 87.1193 90.5113 86.9508 90.0668L83.6374 81.3254C83.3628 80.6016 82.8539 79.9905 82.1918 79.5894C81.5297 79.1882 80.7525 79.0201 79.9838 79.1117L64.679 80.9374C63.915 81.0287 63.2031 81.3713 62.6552 81.9115C62.1072 82.4517 61.7545 83.1587 61.6524 83.9213L60.4037 93.2301C60.3426 93.6867 60.1912 94.1266 59.9583 94.5241C59.7253 94.9215 59.4155 95.2686 59.047 95.545L54.881 98.6623C54.5118 98.9379 54.0915 99.1372 53.6444 99.2485C53.1974 99.3599 52.7327 99.3811 52.2774 99.3108L42.9945 97.8826C42.234 97.7654 41.4562 97.9043 40.7834 98.2776C40.1106 98.6509 39.5809 99.2372 39.2778 99.9444L33.2085 114.112C32.9046 114.824 32.8473 115.617 33.0459 116.365C33.2444 117.113 33.6874 117.773 34.3042 118.24L41.7822 123.909C42.1526 124.189 42.463 124.541 42.695 124.943C42.9269 125.346 43.0757 125.791 43.1324 126.252L43.7718 131.448C43.8294 131.912 43.7926 132.383 43.6636 132.833C43.5346 133.282 43.316 133.701 43.0211 134.064L37.0606 141.383L37.0557 141.382Z" stroke="white" stroke-width="5" stroke-linejoin="round"/>
<path d="M91.5741 114.408C85.8354 106.739 74.966 105.174 67.2967 110.912C59.6274 116.651 58.0624 127.52 63.8011 135.19C69.5399 142.859 80.4092 144.424 88.0785 138.685C95.7478 132.947 97.3128 122.077 91.5741 114.408Z" stroke="white" stroke-width="5" stroke-linejoin="round"/>
</g>
<g clip-path="url(#clip1_26_58)">
<path d="M142.915 39.171C142.263 39.1142 141.61 39.277 141.061 39.6336C140.511 39.9902 140.097 40.5201 139.883 41.1391L135.629 53.468C135.415 54.0871 135.414 54.7597 135.627 55.3792C135.839 55.9986 136.252 56.5293 136.801 56.887L143.51 61.2534C143.84 61.4685 144.124 61.7477 144.343 62.0745C144.563 62.4012 144.715 62.7689 144.79 63.1555L145.627 67.4562C145.702 67.8436 145.698 68.2421 145.616 68.6279C145.533 69.0138 145.374 69.3791 145.147 69.702L140.554 76.2585C140.177 76.7954 139.991 77.443 140.025 78.0979C140.06 78.7528 140.312 79.3774 140.742 79.8723L149.29 89.7177C149.719 90.2125 150.302 90.5495 150.945 90.6751C151.588 90.8008 152.254 90.7078 152.839 90.4111L159.979 86.7846C160.33 86.606 160.714 86.5 161.107 86.4729C161.5 86.4458 161.895 86.4981 162.268 86.6267L166.405 88.0545C166.778 88.1829 167.122 88.3852 167.415 88.6492C167.708 88.9133 167.945 89.2337 168.112 89.5914L171.493 96.849C171.77 97.4432 172.238 97.9276 172.823 98.225C173.407 98.5224 174.074 98.6158 174.718 98.4902L187.515 96.014C188.157 95.8892 188.74 95.5531 189.17 95.0591C189.6 94.5651 189.853 93.9415 189.888 93.2875L190.318 85.3252C190.339 84.9213 190.444 84.5263 190.626 84.1649C190.807 83.8035 191.061 83.4834 191.372 83.2247L193.916 81.1103C194.453 80.6651 195.131 80.4253 195.828 80.4338L204.963 80.5285C205.579 80.5345 206.182 80.3464 206.685 79.991C207.189 79.6355 207.568 79.1306 207.769 78.5478L212.136 65.8912C212.338 65.3082 212.351 64.6767 212.173 64.086C211.995 63.4954 211.636 62.9757 211.147 62.6005L203.904 57.0496C203.347 56.6225 202.961 56.0097 202.816 55.3223L202.127 52.033C202.045 51.639 202.044 51.2322 202.125 50.8379C202.206 50.4435 202.367 50.07 202.598 49.7406L207.149 43.2627C207.526 42.7261 207.712 42.0789 207.678 41.4242C207.645 40.7695 207.393 40.1449 206.963 39.6498L198.408 29.7922C197.981 29.3002 197.402 28.9642 196.763 28.837C196.124 28.7098 195.461 28.7988 194.878 29.0898L187.76 32.6404C187.411 32.8146 187.031 32.9176 186.642 32.9434C186.253 32.9691 185.862 32.917 185.493 32.7901L181.328 31.3527C180.959 31.225 180.62 31.0251 180.329 30.7648C180.039 30.5044 179.803 30.1888 179.636 29.8364L176.223 22.6519C175.944 22.0632 175.477 21.5842 174.895 21.2902C174.314 20.9961 173.651 20.9037 173.011 21.0275L160.197 23.51C159.554 23.6353 158.971 23.9722 158.541 24.4669C158.111 24.9616 157.859 25.5858 157.825 26.2403L157.408 34.1758C157.387 34.5686 157.289 34.9534 157.117 35.3073C156.945 35.6612 156.704 35.977 156.408 36.2359L153.07 39.1548C152.772 39.4157 152.424 39.6138 152.048 39.7371C151.672 39.8603 151.275 39.9062 150.88 39.872L142.917 39.1748L142.915 39.171Z" stroke="white" stroke-width="5" stroke-linejoin="round"/>
<path d="M187.738 64.5531C190.385 56.8852 186.314 48.5239 178.646 45.8776C170.978 43.2313 162.617 47.3021 159.97 54.97C157.324 62.6379 161.395 70.9992 169.063 73.6455C176.731 76.2918 185.092 72.2209 187.738 64.5531Z" stroke="white" stroke-width="5" stroke-linejoin="round"/>
</g>
<g clip-path="url(#clip2_26_58)">
<path d="M148.586 156.407C147.427 156.306 146.268 156.595 145.292 157.229C144.316 157.862 143.58 158.804 143.2 159.903L135.641 181.807C135.262 182.907 135.261 184.102 135.638 185.202C136.015 186.303 136.75 187.246 137.724 187.881L149.644 195.638C150.23 196.021 150.733 196.517 151.124 197.097C151.514 197.678 151.784 198.331 151.917 199.018L153.404 206.658C153.538 207.346 153.531 208.054 153.384 208.74C153.238 209.425 152.955 210.074 152.552 210.648L144.391 222.296C143.723 223.25 143.392 224.401 143.453 225.564C143.514 226.728 143.962 227.837 144.726 228.717L159.912 246.208C160.675 247.087 161.71 247.686 162.852 247.909C163.995 248.132 165.179 247.967 166.217 247.44L178.902 240.997C179.526 240.68 180.208 240.491 180.907 240.443C181.605 240.395 182.306 240.488 182.968 240.716L190.319 243.253C190.982 243.481 191.592 243.841 192.113 244.31C192.634 244.779 193.055 245.348 193.351 245.984L199.358 258.877C199.85 259.933 200.682 260.794 201.72 261.322C202.759 261.85 203.944 262.016 205.087 261.793L227.822 257.394C228.964 257.172 229.999 256.575 230.763 255.697C231.527 254.82 231.976 253.712 232.038 252.55L232.802 238.404C232.84 237.687 233.027 236.985 233.349 236.343C233.671 235.701 234.123 235.132 234.675 234.673L239.195 230.916C240.149 230.125 241.353 229.699 242.591 229.714L258.82 229.882C259.915 229.893 260.985 229.559 261.88 228.927C262.775 228.296 263.448 227.399 263.805 226.364L271.565 203.878C271.923 202.842 271.945 201.72 271.63 200.671C271.314 199.622 270.676 198.698 269.806 198.032L256.94 188.17C255.949 187.411 255.264 186.322 255.007 185.101L253.783 179.257C253.636 178.557 253.634 177.835 253.778 177.134C253.922 176.434 254.209 175.77 254.62 175.185L262.704 163.676C263.374 162.723 263.705 161.573 263.645 160.41C263.585 159.247 263.138 158.137 262.375 157.258L247.174 139.745C246.416 138.87 245.388 138.273 244.252 138.048C243.117 137.822 241.939 137.98 240.903 138.497L228.258 144.805C227.638 145.114 226.963 145.297 226.271 145.343C225.58 145.389 224.886 145.296 224.23 145.071L216.831 142.517C216.176 142.29 215.572 141.935 215.056 141.472C214.54 141.01 214.121 140.449 213.824 139.823L207.761 127.059C207.265 126.013 206.435 125.162 205.402 124.64C204.369 124.117 203.192 123.953 202.055 124.173L179.289 128.584C178.146 128.806 177.111 129.405 176.347 130.284C175.584 131.163 175.136 132.272 175.075 133.434L174.334 147.532C174.298 148.23 174.122 148.914 173.817 149.543C173.512 150.171 173.084 150.732 172.557 151.192L166.627 156.378C166.098 156.842 165.481 157.194 164.812 157.413C164.144 157.632 163.438 157.713 162.737 157.652L148.59 156.414L148.586 156.407Z" stroke="white" stroke-width="5" stroke-linejoin="round"/>
<path d="M228.219 201.501C232.92 187.878 225.688 173.023 212.066 168.322C198.443 163.62 183.588 170.853 178.887 184.475C174.185 198.098 181.418 212.953 195.04 217.654C208.663 222.356 223.518 215.123 228.219 201.501Z" stroke="white" stroke-width="5" stroke-linejoin="round"/>
</g>
<defs>
<clipPath id="clip0_26_58">
<rect width="111" height="111" fill="white" transform="translate(66.5017 202.487) rotate(-126.807)"/>
</clipPath>
<clipPath id="clip1_26_58">
<rect width="94" height="94" fill="white" transform="translate(114.093 88.8572) rotate(-70.9598)"/>
</clipPath>
<clipPath id="clip2_26_58">
<rect width="167" height="167" fill="white" transform="translate(97.3809 244.679) rotate(-70.9598)"/>
</clipPath>
</defs>
</svg>
