<svg width="169" height="169" viewBox="0 0 169 169" fill="none" xmlns="http://www.w3.org/2000/svg">
<path d="M59.6038 109.396C45.8541 95.6463 45.8541 73.3538 59.6038 59.604M39.6861 129.313C14.9367 104.564 14.9367 64.4367 39.6861 39.6872M109.396 109.396C123.145 95.6463 123.145 73.3538 109.396 59.604M129.313 129.313C154.063 104.564 154.063 64.4367 129.313 39.6872M91.5415 84.5007C91.5415 88.3891 88.389 91.5424 84.4999 91.5424C80.6108 91.5424 77.4582 88.3891 77.4582 84.5007C77.4582 80.6116 80.6108 77.459 84.4999 77.459C88.389 77.459 91.5415 80.6116 91.5415 84.5007Z" stroke="#F5F5F5" stroke-width="8" stroke-linecap="square" stroke-linejoin="round"/>
</svg>
